<?xml version="1.0" standalone="no"?>
<!DOCTYPE svg PUBLIC "-//W3C//DTD SVG 20010904//EN"
 "http://www.w3.org/TR/2001/REC-SVG-20010904/DTD/svg10.dtd">
<svg version="1.0" xmlns="http://www.w3.org/2000/svg"
 width="50.000000pt" height="50.000000pt" viewBox="0 0 50.000000 50.000000"
 preserveAspectRatio="xMidYMid meet">

<g transform="translate(0.000000,50.000000) scale(0.100000,-0.100000)"
fill="#000000" stroke="none">
<path d="M112 435 c-100 -113 -43 -299 103 -336 57 -15 57 -34 0 -48 -75 -19
-53 -31 55 -31 108 0 130 12 55 31 -51 13 -59 34 -17 43 50 12 82 28 82 42 0
10 -10 8 -42 -6 -52 -24 -97 -25 -146 -5 -71 30 -122 103 -122 175 0 42 29
108 59 134 11 11 21 23 21 28 0 17 -19 7 -48 -27z"/>
<path d="M205 456 c-42 -18 -93 -79 -101 -121 -11 -60 4 -106 50 -151 72 -72
160 -72 232 0 67 67 72 154 11 223 -52 60 -125 78 -192 49z m105 -15 c0 -15
-30 -21 -51 -11 -27 15 -24 20 16 20 19 0 35 -4 35 -9z m-68 -22 c21 -11 21
-12 3 -25 -16 -12 -20 -11 -31 4 -25 32 -12 42 28 21z m124 -3 c19 -15 19 -15
-3 -37 l-22 -22 -20 24 c-18 22 -19 25 -4 37 21 15 25 15 49 -2z m-166 -56
c-25 -16 -30 -12 -30 22 l0 32 23 -22 c19 -19 20 -24 7 -32z m105 10 c18 -20
18 -21 -1 -35 -26 -20 -37 -19 -52 6 -11 18 -11 23 5 35 24 18 27 17 48 -6z
m-166 -51 c-21 -12 -23 -3 -8 33 l14 33 3 -29 c2 -16 -2 -32 -9 -37z m271 30
c9 -15 8 -24 -1 -35 -16 -20 -32 -18 -47 7 -11 18 -11 23 5 35 24 18 30 17 43
-7z m-170 -24 c12 -22 11 -27 -6 -40 -26 -20 -29 -19 -43 11 -10 22 -9 28 6
40 25 18 28 18 43 -11z m109 -21 c10 -22 9 -28 -6 -40 -25 -18 -28 -18 -43 11
-12 22 -11 27 6 40 26 20 29 19 43 -11z m-171 -25 c11 -18 11 -23 -5 -35 -24
-18 -30 -17 -43 7 -9 15 -8 24 1 35 16 20 32 18 47 -7z m228 -36 l-15 -28 -1
32 c0 17 6 33 13 36 19 6 20 -9 3 -40z m-118 16 c11 -18 11 -23 -5 -35 -24
-18 -27 -17 -48 6 -18 20 -18 21 1 35 26 20 37 19 52 -6z m82 -41 l0 -32 -22
22 c-20 19 -21 24 -8 32 25 16 30 12 30 -22z m-147 -3 c17 -23 17 -25 -3 -35
-14 -8 -26 -8 -40 0 -24 13 -25 18 -3 42 21 23 24 23 46 -7z m113 -42 c-3 -4
-18 -1 -33 6 -27 12 -27 13 -9 27 17 12 21 11 34 -7 8 -11 11 -23 8 -26z m-50
-8 c18 -13 17 -14 -18 -15 -37 0 -51 13 -25 23 19 8 22 8 43 -8z"/>
</g>
</svg>
