<svg id="Layer_1" data-name="Layer 1" xmlns="http://www.w3.org/2000/svg" viewBox="0 0 200 200"><defs><style>.cls-1{fill:#ebeff4;}.cls-2{fill:#b7c2cb;}.cls-3{fill:#f7f9fc;}.cls-4{fill:#e1e6eb;}.cls-5{fill:none;}</style></defs><title>Artboard 1</title><rect class="cls-1" x="41.3" y="0.5" width="114.42" height="167.09" rx="5.32"/><path class="cls-2" d="M150.4,168.09H46.62a5.83,5.83,0,0,1-5.82-5.82V5.82A5.83,5.83,0,0,1,46.62,0H150.4a5.83,5.83,0,0,1,5.82,5.82V162.27A5.83,5.83,0,0,1,150.4,168.09ZM46.62,1A4.83,4.83,0,0,0,41.8,5.82V162.27a4.83,4.83,0,0,0,4.82,4.82H150.4a4.82,4.82,0,0,0,4.82-4.82V5.82A4.82,4.82,0,0,0,150.4,1Z"/><rect class="cls-3" x="49.41" y="19.66" width="100.38" height="63.87" rx="1.15"/><rect class="cls-3" x="49.41" y="88.39" width="47.88" height="48.75" rx="1.08"/><rect class="cls-3" x="102.23" y="88.39" width="47.88" height="48.75" rx="1.08"/><rect class="cls-3" x="49.41" y="142.12" width="98.59" height="17.73" rx="1.09"/><path class="cls-1" d="M155.2,87.46l-40.89-3.81a2.44,2.44,0,0,0-2.64,2.22l-5.2,60.22a2.43,2.43,0,0,0,2.21,2.64l46.52,4.35Z"/><rect class="cls-1" x="53.74" y="145.78" width="89.31" height="3.32"/><rect class="cls-1" x="53.74" y="152.55" width="42.61" height="3.32"/><path class="cls-3" d="M184.66,90.77l-5,57.05A2.43,2.43,0,0,1,177,150l-62.79-5.71a2.44,2.44,0,0,1-2.22-2.64l5.57-63.17a2.43,2.43,0,0,1,2.64-2.21l56.43,5.13Z"/><path class="cls-1" d="M176.6,81.54l-.55,6.83a1.68,1.68,0,0,0,1.53,1.8l6.75.6Z"/><path class="cls-2" d="M176.66,81l-56.43-5.13a2.88,2.88,0,0,0-3.14,2.63l-5.57,63.17a2.91,2.91,0,0,0,2.64,3.14L177,150.49h.26a2.8,2.8,0,0,0,1.85-.68,2.84,2.84,0,0,0,1-2l5-57.05ZM177,82.7l6.49,7.53-5.84-.52a1.23,1.23,0,0,1-1.11-1.31Zm2.2,65.08a2,2,0,0,1-2.14,1.79l-62.79-5.71a2,2,0,0,1-1.8-2.14L118,78.55a2,2,0,0,1,2.14-1.79l56,5.09-.53,6.48a2.14,2.14,0,0,0,1.95,2.3l6.62.58Z"/><circle class="cls-2" cx="140" cy="103.16" r="1"/><circle class="cls-2" cx="161.81" cy="104.98" r="1"/><path class="cls-2" d="M150.06,128.93c-.41,0-.83,0-1.24-.06a12.78,12.78,0,0,1-11.48-13.94l1.37.13a11.39,11.39,0,0,0,22.67,2.19l1.38.14A12.79,12.79,0,0,1,150.06,128.93Z"/><rect class="cls-4" x="38.92" y="192.47" width="119.56" height="7.53" rx="3.31"/><rect class="cls-3" x="49.41" y="9.25" width="72.88" height="5.49" rx="1.08"/><path class="cls-2" d="M196,129.15h-2.74v-2.8a.46.46,0,0,0-.46-.46.45.45,0,0,0-.46.46v2.8h-2.84a.45.45,0,0,0-.46.46.46.46,0,0,0,.46.46h2.84v2.78a.46.46,0,0,0,.46.46.47.47,0,0,0,.46-.46v-2.78H196a.47.47,0,0,0,.46-.46A.46.46,0,0,0,196,129.15Z"/><path class="cls-2" d="M197.5,114.93a2.51,2.51,0,1,1,2.5-2.51A2.51,2.51,0,0,1,197.5,114.93Zm0-4.08a1.58,1.58,0,1,0,1.58,1.57A1.57,1.57,0,0,0,197.5,110.85Z"/><rect class="cls-5" width="200" height="200"/></svg>