<?xml version="1.0" encoding="UTF-8"?> <svg xmlns="http://www.w3.org/2000/svg" xmlns:xlink="http://www.w3.org/1999/xlink" width="600px" height="202px" viewBox="0 0 600 202"><!-- Generator: Sketch 48.1 (47250) - http://www.bohemiancoding.com/sketch --><title>hooli</title><desc>Created with Sketch.</desc><defs></defs><g id="Page-1" stroke="none" stroke-width="1" fill="none" fill-rule="evenodd"><g id="hooli"><path d="M475.788488,191.435058 L529.959929,191.435058 L529.959929,4.22133252 L475.808499,29.6823992 L475.808499,191.435058 L475.788488,191.435058 Z M544.828559,87.4740282 L544.828559,191.435058 L599,191.435058 L599,87.4740282 L544.828559,87.4740282 Z M310.18237,79.1068228 C293.172497,62.1327783 262.984976,63.1312515 262.984976,63.1312515 C262.984976,63.1312515 232.807461,62.1327783 215.797588,79.1068228 C214.023358,80.8658492 212.352915,82.7261363 210.794685,84.6783032 C195.942758,73.1944828 181.71664,63.0424512 168.171664,54.1261216 C154.842771,45.3520352 142.17346,37.7745387 130.216454,31.302071 C125.091819,28.5280454 120.098025,25.9570005 115.239224,23.5817279 L115.239224,4.22133252 L94.1469822,14.1261867 C73.9470921,5.93887536 56.660284,1.57616223 42.6719746,0.358599433 C21.3987813,-1.49305025 7.75430002,3.92935062 3.09413487,14.2360188 C3.09413487,14.2360188 1.79429914,16.1710793 0.879601203,20.0888462 C-2.07784058,32.7559433 -1.00910266,67.1670138 61.0377655,122.898438 L61.0377655,92.9256919 C15.3612547,41.9336654 24.5565917,17.7706139 28.0186011,14.8850263 C36.9023864,7.38272977 50.6792505,6.73015238 66.8196131,10.305688 C73.6210102,11.8123851 80.8420939,14.0698684 88.2935848,16.8819727 L61.0377655,29.6823992 L61.0377655,92.9157071 C73.3349028,106.644714 89.5943398,122.300774 111.066802,140.013688 C112.460945,141.158604 113.851752,142.286879 115.239224,143.398512 L115.239224,115.551095 C115.239224,109.061019 116.80013,98.5770502 125.305066,98.5770502 C133.810003,98.5770502 135.250839,105.067126 135.250839,112.555675 L135.250839,158.086053 C152.060673,169.487686 170.206105,178.792781 189.282199,185.793684 L189.282199,98.0778136 C189.282199,80.6045326 176.77494,63.1312515 151.260131,63.1312515 C136.440945,63.004387 122.691668,70.8173452 115.239224,83.5999522 L115.239224,28.8237122 C116.990849,29.6979032 118.742874,30.588904 120.493102,31.4944489 C121.546719,32.0395765 134.35211,39.2619918 147.708395,47.0959172 C156.539054,52.2754056 165.610528,57.7222062 171.685579,61.6832102 C182.741842,68.892022 192.431108,75.6072474 199.835901,80.8827751 C203.373049,83.4028079 206.388922,85.5943283 208.783517,87.3542114 C199.197954,100.993355 200.118488,113.614057 200.118488,128.20175 C200.118488,145.675031 198.787716,160.322633 215.797588,177.296678 C232.807461,194.270722 262.994982,193.272249 262.994982,193.272249 C262.994982,193.272249 293.182503,194.270722 310.192375,177.296678 C327.202248,160.322633 325.811441,145.675031 325.811441,128.20175 C325.811441,110.728469 327.192242,96.0808672 310.18237,79.1068228 Z M272.990784,146.334024 C272.990784,149.658939 271.319814,157.986206 262.984976,157.986206 C254.650139,157.986206 252.979169,149.668924 252.979169,146.334024 L252.979169,108.561782 C252.979169,100.404256 259.813135,98.4073098 262.984976,98.4073098 C266.156817,98.4073098 272.990784,100.404256 272.990784,108.561782 L272.990784,146.334024 Z M446.791658,79.1068228 C429.781785,62.1327783 399.594264,63.1312515 399.594264,63.1312515 C399.594264,63.1312515 369.406744,62.1327783 352.396871,79.1068228 C335.386998,96.0808672 336.697759,110.728469 336.697759,128.20175 C336.697759,145.675031 335.366987,160.322633 352.376859,177.296678 C369.386732,194.270722 399.574253,193.272249 399.574253,193.272249 C399.574253,193.272249 429.761774,194.270722 446.771646,177.296678 C463.781519,160.322633 462.450747,145.675031 462.450747,128.20175 C462.450747,110.728469 463.781519,96.0808672 446.771646,79.1068228 L446.791658,79.1068228 Z M409.600072,146.334024 C409.600072,149.658939 407.929102,157.986206 399.594264,157.986206 C391.259427,157.986206 389.588457,149.668924 389.588457,146.334024 L389.588457,108.561782 C389.588457,100.404256 396.422424,98.4073098 399.594264,98.4073098 C402.766105,98.4073098 409.600072,100.404256 409.600072,108.561782 L409.600072,146.334024 Z M135.230827,191.435058 L171.101647,191.435058 C158.74805,187.152667 146.75363,181.900929 135.230827,175.729075 L135.230827,191.435058 Z M61.2832031,122.032397 L61.2832031,92.1796875 L61.2832031,122.032397 C71.4933839,131.213503 83.3206943,140.945437 97.0386605,151.296435 C103.095509,155.849473 109.155693,160.076343 115.219213,163.977045 L115.219213,191.435058 L61.0377655,191.395119 L61.0377655,121.811522 C61.119474,121.885111 61.2012865,121.958736 61.2832031,122.032396 Z" id="Shape" fill="#000000" fill-rule="nonzero"></path><path d="M259.713077,198.184737 C251.259563,198.284247 241.662327,197.797733 231.131594,196.30842 C218.416111,194.510129 204.339615,191.249787 189.272193,185.793684 L189.272193,191.425073 L171.101647,191.425073 C185.651903,196.420976 199.676905,199.568762 212.779282,201.0323 C230.419506,203.002718 246.387354,201.920226 259.713077,198.184737 Z" id="Shape-path" fill="#000000"></path><circle id="Oval" fill="#01ABE8" cx="572.17526" cy="50.9664105" r="27"></circle></g></g></svg> 